# xmcd
#
# Track frame offsets: 
#        150
#        22156
#        39191
#        60298
#        86034
#        103540
#        119289
#        141290
#        157490
#        168568
#        187514
#        208746
#        225854
#        245022
#        253658
#
# Disc length: 3993 seconds
#
# Revision: 0
# Processed by: cddbd v1.5.2PL0 Copyright (c) Steve Scherf et al.
# Submitted via: ExactAudioCopy v0.99pb5
#
DISCID=c60f970f
DTITLE=Paris - Acid Reflex
DYEAR=2008
DGENRE=Hip-Hop
TTITLE0=Don't Stop The Movement
TTITLE1=So What
TTITLE2=Blap That Ass Up
TTITLE3=The Trap
TTITLE4=Get Fired Up
TTITLE5=Neighborhood Watch
TTITLE6=Acid Reflex
TTITLE7=True
TTITLE8=The Violence Of The Lambs
TTITLE9=Winter In America
TTITLE10=The Hustle
TTITLE11=Rebels Without Applause
TTITLE12=One Gun
TTITLE13=Harambe
TTITLE14=Don't Stop The Movement (Warrior Dance Mix)
EXTD=
EXTT0=
EXTT1=
EXTT2=
EXTT3=
EXTT4=
EXTT5=
EXTT6=
EXTT7=
EXTT8=
EXTT9=
EXTT10=
EXTT11=
EXTT12=
EXTT13=
EXTT14=
PLAYORDER=
